HIERARCHY
ROOT joint_Root
{
	OFFSET 0.0 0.0 0.0
	CHANNELS 6 Xposition Yposition Zposition Zrotation Xrotation Yrotation 
	JOINT Hips
	{
		OFFSET -17.1583 93.1646 452.98
		CHANNELS 6 Xposition Yposition Zposition Zrotation Xrotation Yrotation 
		JOINT Spine
		{
			OFFSET 15.7357 0.0 0.0
			CHANNELS 6 Xposition Yposition Zposition Zrotation Xrotation Yrotation 
			JOINT Chest
			{
				OFFSET 8.98455 -0.406207 0.0
				CHANNELS 6 Xposition Yposition Zposition Zrotation Xrotation Yrotation 
				JOINT Neck
				{
					OFFSET 16.3773 0.0 0.0
					CHANNELS 6 Xposition Yposition Zposition Zrotation Xrotation Yrotation 
					JOINT Head
					{
						OFFSET 6.45672 0.0 0.0
						CHANNELS 6 Xposition Yposition Zposition Zrotation Xrotation Yrotation 
						End Site
						{
							OFFSET 0.0 0.0 0.0
						}
					}
				}
				JOINT Shoulder_L
				{
					OFFSET 12.9942 -0.242716 4.98039
					CHANNELS 6 Xposition Yposition Zposition Zrotation Xrotation Yrotation 
					JOINT UpperArm_L
					{
						OFFSET 5.34809 0.0 0.0
						CHANNELS 6 Xposition Yposition Zposition Zrotation Xrotation Yrotation 
						JOINT LowerArm_L
						{
							OFFSET 24.3286 1.87007e-05 0.0
							CHANNELS 6 Xposition Yposition Zposition Zrotation Xrotation Yrotation 
							JOINT Hand_L
							{
								OFFSET 22.2916 0.0 0.0
								CHANNELS 6 Xposition Yposition Zposition Zrotation Xrotation Yrotation 
								End Site
								{
									OFFSET 0.0 0.0 0.0
								}
							}
						}
					}
				}
				JOINT Shoulder_R
				{
					OFFSET 12.9945 -0.242716 -4.98039
					CHANNELS 6 Xposition Yposition Zposition Zrotation Xrotation Yrotation 
					JOINT UpperArm_R
					{
						OFFSET -5.34813 0.0 0.0
						CHANNELS 6 Xposition Yposition Zposition Zrotation Xrotation Yrotation 
						JOINT LowerArm_R
						{
							OFFSET -24.3289 0.000322201 0.0
							CHANNELS 6 Xposition Yposition Zposition Zrotation Xrotation Yrotation 
							JOINT Hand_R
							{
								OFFSET -22.2915 -0.000108084 0.0
								CHANNELS 6 Xposition Yposition Zposition Zrotation Xrotation Yrotation 
								End Site
								{
									OFFSET 0.0 0.0 0.0
								}
							}
						}
					}
				}
			}
		}
		JOINT UpperLeg_L
		{
			OFFSET -2.19248 -6.46944 0.0
			CHANNELS 6 Xposition Yposition Zposition Zrotation Xrotation Yrotation 
			JOINT LowerLeg_L
			{
				OFFSET 39.0811 0.0 -1.23785e-05
				CHANNELS 6 Xposition Yposition Zposition Zrotation Xrotation Yrotation 
				JOINT Foot_L
				{
					OFFSET 40.9854 0.0 -1.26872e-05
					CHANNELS 6 Xposition Yposition Zposition Zrotation Xrotation Yrotation 
					JOINT Toes_L
					{
						OFFSET 11.7543 0.0 0.0
						CHANNELS 6 Xposition Yposition Zposition Zrotation Xrotation Yrotation 
						End Site
						{
							OFFSET 0.0 0.0 0.0
						}
					}
				}
			}
		}
		JOINT UpperLeg_R
		{
			OFFSET -2.19251 6.46944 0.0
			CHANNELS 6 Xposition Yposition Zposition Zrotation Xrotation Yrotation 
			JOINT LowerLeg_R
			{
				OFFSET -39.0811 -0.00228153 -0.0401928
				CHANNELS 6 Xposition Yposition Zposition Zrotation Xrotation Yrotation 
				JOINT Foot_R
				{
					OFFSET -40.9854 0.0 0.0
					CHANNELS 6 Xposition Yposition Zposition Zrotation Xrotation Yrotation 
					JOINT Toes_R
					{
						OFFSET -11.7543 0.0 0.0
						CHANNELS 6 Xposition Yposition Zposition Zrotation Xrotation Yrotation 
						End Site
						{
							OFFSET 0.0 0.0 0.0
						}
					}
				}
			}
		}
	}
}
MOTION
Frames:	9
Frame Time:	0.0333333
0.000000 0.000000 0.000000 0.000000 0.000000 -0.000000 -0.444530 92.604200 -1.724350 85.237100 0.128314 2.041050 15.735700 0.000005 -0.000001 81.590200 87.230900 -79.301000 8.984550 -0.406207 -0.000000 -2.263200 -1.009980 4.558200 16.377300 -0.000001 -0.000001 5.523620 3.477170 -0.088854 6.456720 -0.000001 -0.000000 5.447800 4.730450 -5.927940 12.994200 -0.242716 4.980390 -92.853300 8.828660 -72.009700 5.348090 -0.000007 -0.000001 -72.743200 28.745900 1.093050 24.328600 0.000019 0.000005 12.945900 28.144900 -25.981200 22.291600 -0.000001 0.000005 -4.272580 5.043740 6.374930 12.994500 -0.242716 -4.980390 88.555900 4.768280 -73.128600 -5.348130 -0.000001 -0.000004 -71.969800 18.410800 -2.301270 -24.328900 0.000322 -0.000009 0.029904 0.091303 -18.723600 -22.291500 -0.000108 -0.000004 3.837830 5.244910 1.566800 -2.192480 -6.469440 -0.000000 -174.823000 -0.381330 -5.049600 39.081100 -0.000007 -0.000012 0.304188 -0.665201 24.574700 40.985400 -0.000006 -0.000013 2.916890 8.967800 -73.401400 11.754300 -0.000000 0.000003 0.000410 0.160409 -10.071000 -2.192510 6.469440 -0.000001 -173.232000 8.140830 -178.831000 -39.081100 -0.002282 -0.040193 0.064225 -0.242070 14.119900 -40.985400 0.000008 0.000006 1.655780 2.828410 -69.265600 -11.754300 -0.000006 -0.000006 -0.010855 0.277586 -5.294010
0.000000 0.000000 0.000000 0.000000 0.000000 -0.000000 -0.445190 92.616300 -1.768920 85.224000 0.179574 1.889460 15.735700 0.000005 -0.000001 81.922800 87.231500 -79.649500 8.984550 -0.406207 -0.000000 -2.260740 -0.976545 4.526890 16.377300 -0.000001 -0.000001 5.200230 3.383620 0.035153 6.456720 -0.000001 -0.000000 5.052820 4.619670 -5.697500 12.994200 -0.242716 4.980390 -92.838400 8.789870 -72.024200 5.348090 -0.000007 -0.000001 -72.747300 28.702200 1.006740 24.328600 0.000019 0.000005 12.993000 28.181100 -26.039400 22.291600 -0.000001 0.000005 -4.310970 5.043460 6.381150 12.994500 -0.242716 -4.980390 88.524200 4.850580 -73.055300 -5.348130 -0.000001 -0.000004 -71.203400 17.824500 -2.605630 -24.328900 0.000322 -0.000009 0.259225 0.762259 -18.853300 -22.291500 -0.000108 -0.000004 2.963830 5.244190 1.586180 -2.192480 -6.469440 -0.000000 -174.807000 -0.383480 -5.236640 39.081100 -0.000007 -0.000012 0.303430 -0.664474 24.544300 40.985400 -0.000006 -0.000013 2.908210 8.983270 -73.335600 11.754300 -0.000000 0.000003 0.000348 0.161541 -10.025100 -2.192510 6.469440 -0.000001 -173.197000 8.155840 -178.999000 -39.081100 -0.002282 -0.040193 0.063135 -0.238642 14.068600 -40.985400 0.000008 0.000006 1.592380 2.834820 -69.226400 -11.754300 -0.000006 -0.000006 -0.011280 0.280630 -5.169420
0.000000 0.000000 0.000000 0.000000 0.000000 -0.000000 -0.447069 92.634800 -1.807820 85.226300 0.241879 1.752920 15.735700 0.000005 -0.000001 81.743900 87.226000 -79.485700 8.984550 -0.406207 -0.000000 -2.252070 -0.993761 4.496570 16.377300 -0.000001 -0.000001 4.840630 3.272400 0.219154 6.456720 -0.000001 -0.000000 4.567430 4.564190 -5.424970 12.994200 -0.242716 4.980390 -92.822900 8.734180 -72.010300 5.348090 -0.000007 -0.000001 -72.796000 28.705700 1.004650 24.328600 0.000019 0.000005 13.028200 28.176600 -26.106000 22.291600 -0.000001 0.000005 -4.355770 5.043930 6.370590 12.994500 -0.242716 -4.980390 88.518100 4.860830 -73.022700 -5.348130 -0.000001 -0.000004 -70.229200 16.944000 -3.050050 -24.328900 0.000322 -0.000009 0.374257 1.091430 -18.977700 -22.291500 -0.000108 -0.000004 1.855190 5.236370 1.791670 -2.192480 -6.469440 -0.000000 -174.819000 -0.255285 -5.366880 39.081100 -0.000007 -0.000012 0.301928 -0.663858 24.457100 40.985400 -0.000006 -0.000013 2.890440 8.953410 -73.290700 11.754300 -0.000000 0.000003 0.000252 0.163271 -9.954820 -2.192510 6.469440 -0.000001 -173.202000 8.225720 -179.108000 -39.081100 -0.002282 -0.040193 0.059430 -0.225854 13.949000 -40.985400 0.000008 0.000006 1.433880 2.871940 -69.063900 -11.754300 -0.000006 -0.000006 -0.010630 0.275952 -5.360870
0.000000 0.000000 0.000000 0.000000 0.000000 -0.000000 -0.451787 92.640100 -1.847460 85.189000 0.292881 1.617310 15.735700 0.000005 -0.000001 81.953500 87.217200 -79.695900 8.984550 -0.406207 -0.000000 -2.232120 -0.975688 4.495760 16.377300 -0.000001 -0.000001 4.458400 3.176590 0.423511 6.456720 -0.000001 -0.000000 4.027670 4.509110 -5.004030 12.994200 -0.242716 4.980390 -92.792200 8.679400 -72.089600 5.348090 -0.000007 -0.000001 -72.876600 28.586400 1.023440 24.328600 0.000019 0.000005 13.023900 28.106000 -26.150400 22.291600 -0.000001 0.000005 -4.277560 5.040760 6.440200 12.994500 -0.242716 -4.980390 88.509900 4.884580 -73.012400 -5.348130 -0.000001 -0.000004 -68.970400 15.596700 -3.518030 -24.328900 0.000322 -0.000009 0.484797 1.381970 -19.371200 -22.291500 -0.000108 -0.000004 0.629382 5.224360 2.101480 -2.192480 -6.469440 -0.000000 -174.774000 -0.249352 -5.560230 39.081100 -0.000007 -0.000012 0.301930 -0.663234 24.477500 40.985400 -0.000006 -0.000013 2.884630 8.977490 -73.227800 11.754300 -0.000000 0.000003 0.000282 0.162737 -9.976520 -2.192510 6.469440 -0.000001 -173.132000 8.180400 -179.264000 -39.081100 -0.002282 -0.040193 0.058740 -0.223859 13.902100 -40.985400 0.000008 0.000006 1.418270 2.829040 -68.988600 -11.754300 -0.000006 -0.000006 -0.010446 0.274611 -5.415770
0.000000 0.000000 0.000000 0.000000 0.000000 -0.000000 -0.442953 92.662000 -1.892080 85.216400 0.348349 1.511170 15.735700 0.000005 -0.000001 81.788500 87.191500 -79.552900 8.984550 -0.406207 -0.000000 -2.183430 -0.996026 4.451830 16.377300 -0.000001 -0.000001 3.983040 3.050040 0.637320 6.456720 -0.000001 -0.000000 3.464590 4.418910 -4.368330 12.994200 -0.242716 4.980390 -92.768600 8.614880 -72.108100 5.348090 -0.000007 -0.000001 -72.935800 28.494100 1.013040 24.328600 0.000019 0.000005 13.047600 28.175300 -26.141800 22.291600 -0.000001 0.000005 -4.283350 5.040040 6.455810 12.994500 -0.242716 -4.980390 88.506500 4.903510 -73.037700 -5.348130 -0.000001 -0.000004 -67.490300 13.745000 -3.928220 -24.328900 0.000322 -0.000009 0.650433 1.753410 -20.383900 -22.291500 -0.000108 -0.000004 -0.331361 5.201490 2.684440 -2.192480 -6.469440 -0.000000 -174.819000 -0.158760 -5.642420 39.081100 -0.000007 -0.000012 0.299336 -0.661298 24.354500 40.985400 -0.000006 -0.000013 2.863310 8.914360 -73.177500 11.754300 -0.000000 0.000003 0.000318 0.162094 -10.002600 -2.192510 6.469440 -0.000001 -173.161000 8.240380 -179.341000 -39.081100 -0.002282 -0.040193 0.056606 -0.217037 13.791100 -40.985400 0.000008 0.000006 1.326470 2.864680 -68.953300 -11.754300 -0.000006 -0.000006 -0.010986 0.278532 -5.255310
0.000000 0.000000 0.000000 0.000000 0.000000 -0.000000 -0.441669 92.663400 -1.906500 85.213600 0.393009 1.490720 15.735700 0.000005 -0.000001 81.798200 87.132800 -79.577700 8.984550 -0.406207 -0.000000 -2.066960 -1.008280 4.422330 16.377300 -0.000001 -0.000001 3.510420 2.855100 0.943840 6.456720 -0.000001 -0.000000 2.832290 4.299340 -3.623670 12.994200 -0.242716 4.980390 -92.741400 8.556000 -72.159400 5.348090 -0.000007 -0.000001 -72.972400 28.385600 1.001840 24.328600 0.000019 0.000005 13.063600 28.264100 -26.105200 22.291600 -0.000001 0.000005 -4.207620 5.040040 6.455980 12.994500 -0.242716 -4.980390 88.497700 4.945560 -73.079100 -5.348130 -0.000001 -0.000004 -65.911300 10.897300 -4.101240 -24.328900 0.000322 -0.000009 1.104840 2.675880 -22.457900 -22.291500 -0.000108 -0.000004 -1.160010 5.173370 3.379080 -2.192480 -6.469440 -0.000000 -174.827000 0.005366 -5.688730 39.081100 -0.000007 -0.000012 0.298835 -0.660234 24.353100 40.985400 -0.000006 -0.000013 2.839840 8.826990 -73.105400 11.754300 -0.000000 0.000003 0.000246 0.163382 -9.950320 -2.192510 6.469440 -0.000001 -173.127000 8.065500 -179.374000 -39.081100 -0.002282 -0.040193 0.056893 -0.218415 13.778500 -40.985400 0.000008 0.000006 1.318720 2.689340 -68.921900 -11.754300 -0.000006 -0.000006 -0.010801 0.277193 -5.310090
0.000000 0.000000 0.000000 0.000000 0.000000 -0.000000 -0.454163 92.679500 -1.906500 85.250200 0.533267 1.447920 15.735700 0.000005 -0.000001 81.023900 87.087900 -78.815000 8.984550 -0.406207 -0.000000 -1.988390 -1.096390 4.398140 16.377300 -0.000001 -0.000001 3.009440 2.646600 1.301550 6.456720 -0.000001 -0.000000 2.269540 4.229730 -2.971380 12.994200 -0.242716 4.980390 -92.710700 8.484920 -72.209600 5.348090 -0.000007 -0.000001 -73.042400 28.321300 1.040070 24.328600 0.000019 0.000005 13.028700 28.255500 -26.048900 22.291600 -0.000001 0.000005 -4.108370 5.036300 6.537740 12.994500 -0.242716 -4.980390 88.511900 4.897420 -73.075600 -5.348130 -0.000001 -0.000004 -64.448000 7.259320 -3.986860 -24.328900 0.000322 -0.000009 1.643240 3.411880 -25.750400 -22.291500 -0.000108 -0.000004 -1.179770 5.145160 4.058440 -2.192480 -6.469440 -0.000000 -174.860000 0.105746 -5.694350 39.081100 -0.000007 -0.000012 0.296502 -0.658716 24.234100 40.985400 -0.000006 -0.000013 2.828780 8.846130 -73.061000 11.754300 -0.000000 0.000003 0.000381 0.160946 -10.049200 -2.192510 6.469440 -0.000001 -173.158000 8.100240 -179.382000 -39.081100 -0.002282 -0.040193 0.054023 -0.208114 13.688900 -40.985400 0.000008 0.000006 1.123160 2.585570 -68.838500 -11.754300 -0.000006 -0.000006 -0.010761 0.276909 -5.321730
0.000000 0.000000 0.000000 0.000000 0.000000 -0.000000 -0.477570 92.687400 -1.936580 85.261600 0.661659 1.314530 15.735700 0.000005 -0.000001 80.281300 87.068100 -78.046400 8.984550 -0.406207 -0.000000 -1.959710 -1.179180 4.448910 16.377300 -0.000001 -0.000001 2.709350 2.424570 1.614900 6.456720 -0.000001 -0.000000 1.425460 4.146730 -2.432270 12.994200 -0.242716 4.980390 -92.693200 8.459990 -72.268600 5.348090 -0.000007 -0.000001 -73.083200 28.293700 1.086930 24.328600 0.000019 0.000005 12.987700 28.219900 -26.001300 22.291600 -0.000001 0.000005 -4.057590 5.040030 6.456160 12.994500 -0.242716 -4.980390 88.542000 4.774090 -72.995100 -5.348130 -0.000001 -0.000004 -63.212900 2.700730 -3.678950 -24.328900 0.000322 -0.000009 2.367900 4.052800 -30.335700 -22.291500 -0.000108 -0.000004 -0.576635 5.117740 4.703410 -2.192480 -6.469440 -0.000000 -174.845000 0.153315 -5.854620 39.081100 -0.000007 -0.000012 0.294695 -0.655914 24.194500 40.985400 -0.000006 -0.000013 2.821440 8.937320 -72.985900 11.754300 -0.000000 0.000003 0.000478 0.159139 -10.122600 -2.192510 6.469440 -0.000001 -173.115000 8.104030 -179.507000 -39.081100 -0.002282 -0.040193 0.053606 -0.207684 13.607700 -40.985400 0.000008 0.000006 1.172820 2.498970 -68.794400 -11.754300 -0.000006 -0.000006 -0.010846 0.277519 -5.296770
0.000000 0.000000 0.000000 0.000000 0.000000 -0.000000 -0.517833 92.695700 -1.954370 85.262000 0.780830 1.283120 15.735700 0.000005 -0.000001 79.475900 87.017300 -77.187300 8.984550 -0.406207 -0.000000 -1.871430 -1.281660 4.555550 16.377300 -0.000001 -0.000001 2.423840 2.257670 1.833000 6.456720 -0.000001 -0.000000 0.683835 4.095040 -1.878850 12.994200 -0.242716 4.980390 -92.669500 8.405990 -72.310400 5.348090 -0.000007 -0.000001 -73.181500 28.245800 1.142220 24.328600 0.000019 0.000005 13.095700 28.409000 -26.056600 22.291600 -0.000001 0.000005 -4.105940 5.039150 6.475490 12.994500 -0.242716 -4.980390 88.564700 4.675080 -72.912300 -5.348130 -0.000001 -0.000004 -62.248400 -2.664450 -3.163240 -24.328900 0.000322 -0.000009 3.392120 4.637380 -36.250400 -22.291500 -0.000108 -0.000004 0.502426 5.091320 5.309810 -2.192480 -6.469440 -0.000000 -174.809000 0.217522 -5.900380 39.081100 -0.000007 -0.000012 0.292903 -0.652924 24.161700 40.985400 -0.000006 -0.000013 2.794760 8.994510 -72.980900 11.754300 -0.000000 0.000003 0.000401 0.160586 -10.063900 -2.192510 6.469440 -0.000001 -173.071000 8.050040 -179.520000 -39.081100 -0.002282 -0.040193 0.052397 -0.203840 13.533600 -40.985400 0.000008 0.000006 1.107470 2.330780 -68.775800 -11.754300 -0.000006 -0.000006 -0.011087 0.279259 -5.225550
